<svg xmlns="http://www.w3.org/2000/svg" width="71.548" height="93.753" viewBox="0 0 71.548 93.753"><defs><style>.a,.b{fill:#5cade1;}.b{font-size:12px;font-family:TaipeiSansTCBeta-Bold, Taipei Sans TC Beta;font-weight:700;letter-spacing:0.05em;}</style></defs><g transform="translate(0.219)"><g transform="translate(-0.219 0)"><g transform="translate(0 0)"><path class="a" d="M1362.835,818.994a32.518,32.518,0,1,1-.38-5.058,32.942,32.942,0,0,1,.38,5.058,1.587,1.587,0,0,0,3.171,0,35.854,35.854,0,1,0-.437,5.543,38.677,38.677,0,0,0,.437-5.543A1.587,1.587,0,0,0,1362.835,818.994Z" transform="translate(-1294.459 -783.216)"/></g><g transform="translate(28.298 8.93)"><path class="a" d="M1377.894,841.942a1.335,1.335,0,1,0,1.113,1.317A1.228,1.228,0,0,0,1377.894,841.942Z" transform="translate(-1370.432 -826.156)"/><path class="a" d="M1375.458,814.6a7.047,7.047,0,1,0-12.639,0,1.349,1.349,0,0,0,.227,2.679h1.191l1.333,16.931a1.822,1.822,0,0,0,1.368,1.537,2.28,2.28,0,0,0,4.486.01,1.823,1.823,0,0,0,1.4-1.532l1.3-16.93,1.1,0a1.366,1.366,0,0,0,1.35-1.368A1.349,1.349,0,0,0,1375.458,814.6Zm-6.3,4.175a2.8,2.8,0,1,1-2.34,2.766A2.579,2.579,0,0,1,1369.159,818.771Z" transform="translate(-1361.697 -804.434)"/></g><g transform="translate(17.633 46.699)"><path class="a" d="M1346.339,906.247a.606.606,0,0,1,.641.655.644.644,0,0,1-.641.7h-7.887c-.659,0-1.04-.312-1.04-.936a4.159,4.159,0,0,1,.659-1.779,8.642,8.642,0,0,1,3.293-3l1.2-.7c1.7-1,2.427-1.607,2.427-2.793,0-1.154-1.075-1.872-2.7-1.872a2.689,2.689,0,0,0-2.981,2.138.726.726,0,0,1-.763.484,1.5,1.5,0,0,1-.26-.015c-.381-.078-.659-.3-.659-.64a1.073,1.073,0,0,1,.035-.234,3.9,3.9,0,0,1,1.144-1.9,5.108,5.108,0,0,1,3.571-1.124c2.635,0,4.316,1.233,4.316,3.214,0,1.9-1.335,2.762-2.912,3.651l-1.144.624c-1.924,1.093-3.034,2.122-3.449,3.526Z" transform="translate(-1336.968 -894.787)"/><path class="a" d="M1345.728,907.437h-7.887a1.332,1.332,0,0,1-1.484-1.381,4.635,4.635,0,0,1,.724-2.011,9.014,9.014,0,0,1,3.448-3.147l1.2-.7c1.754-1.031,2.207-1.526,2.207-2.409,0-1.053-1.167-1.428-2.26-1.428a2.255,2.255,0,0,0-2.554,1.815,1.157,1.157,0,0,1-1.19.806,1.881,1.881,0,0,1-.337-.022,1.131,1.131,0,0,1-1.026-1.078,1.472,1.472,0,0,1,.045-.329,4.347,4.347,0,0,1,1.281-2.138,5.6,5.6,0,0,1,3.868-1.238c2.892,0,4.761,1.436,4.761,3.659,0,2.269-1.74,3.25-3.139,4.038l-1.15.627a6.841,6.841,0,0,0-3.014,2.692h6.511a1.045,1.045,0,0,1,1.085,1.1A1.08,1.08,0,0,1,1345.728,907.437Zm-4.057-11.967c1.913,0,3.149.909,3.149,2.316,0,1.508-1.048,2.237-2.646,3.176l-1.2.7a8.189,8.189,0,0,0-3.134,2.835,3.823,3.823,0,0,0-.6,1.556c0,.249.046.492.6.492h7.887c.163,0,.2-.14.2-.258,0-.195-.094-.211-.2-.211h-7.755l.169-.571c.427-1.442,1.52-2.574,3.656-3.787l1.151-.627c1.567-.884,2.681-1.637,2.681-3.261,0-1.708-1.483-2.77-3.872-2.77a4.7,4.7,0,0,0-3.277,1.013,3.437,3.437,0,0,0-1.008,1.681.8.8,0,0,0-.021.123c0,.133.232.19.3.2a1.178,1.178,0,0,0,.171.007c.286,0,.325-.127.338-.168A3.116,3.116,0,0,1,1341.671,895.47Z" transform="translate(-1336.356 -894.175)"/><g transform="translate(12.084)"><path class="a" d="M1367.076,904.562c-.572,0-.954-.281-.954-.827a1.754,1.754,0,0,1,.538-1.248l5.287-6.491a1.584,1.584,0,0,1,1.439-.765c.589,0,.971.25.971.874v7.177h1.63a.58.58,0,0,1,.659.624.609.609,0,0,1-.659.655h-1.63v2.5c0,.452-.329.64-.8.64s-.78-.187-.78-.624v-2.512Zm1.282-1.95a8.042,8.042,0,0,1-.676.7c.382-.031.8-.031,1.092-.031h4v-4.01c0-.733.052-1.716.139-2.574-.4.593-.8,1.17-1.335,1.841Z" transform="translate(-1365.678 -894.787)"/><path class="a" d="M1372.948,907.531c-.9,0-1.224-.552-1.224-1.069v-2.068h-5.259a1.255,1.255,0,0,1-1.4-1.271,2.176,2.176,0,0,1,.641-1.532l5.284-6.487a2.014,2.014,0,0,1,1.783-.928,1.258,1.258,0,0,1,1.415,1.319v6.733h1.185a1.018,1.018,0,0,1,1.1,1.069,1.054,1.054,0,0,1-1.1,1.1h-1.185v2.052C1374.189,906.971,1373.863,907.531,1372.948,907.531Zm-6.984-4.292c.024.125.122.268.5.268h6.147v2.956c0,.084,0,.18.336.18.353,0,.353-.108.353-.2v-2.941h2.074c.142,0,.215-.033.215-.211,0-.12,0-.18-.215-.18H1373.3v-7.622c0-.229-.034-.407-.445-.428l-.108,1.065c-.084.833-.136,1.8-.136,2.53v4.454h-4.449c-.292,0-.692,0-1.056.03Zm6.477-8.149c-.3.057-.471.217-.76.574l-5.288,6.492a1.328,1.328,0,0,0-.438.967c0,.011,0,.022,0,.034l.808-.775a7.728,7.728,0,0,0,.638-.66l3.222-4.07c.546-.682.948-1.269,1.315-1.813Zm-.693,2.562c-.133.178-.276.362-.43.554l-3.184,4.021h3.589v-3.566C1371.724,898.356,1371.732,898.011,1371.748,897.651Z" transform="translate(-1365.067 -894.175)"/></g><g transform="translate(25.031 5.214)"><path class="a" d="M1401.517,914.424c0,.245-.2.362-.463.362s-.453-.118-.453-.362v-2.9c0-.771-.352-1.2-1.108-1.2a1.678,1.678,0,0,0-1.339.634,1.354,1.354,0,0,0-.362.924v2.538c0,.245-.171.362-.433.362-.282,0-.473-.118-.473-.362v-6.453c0-.236.191-.354.473-.354.262,0,.433.109.433.354v2.275a4.2,4.2,0,0,1-.061.462,1.983,1.983,0,0,1,1.943-1.124,1.636,1.636,0,0,1,1.843,1.767Z" transform="translate(-1396.441 -907.174)"/><path class="a" d="M1400.443,914.62a.808.808,0,0,1-.9-.807v-2.9c0-.626-.253-.752-.663-.752a1.235,1.235,0,0,0-1,.475.919.919,0,0,0-.259.64v2.538a.8.8,0,0,1-.878.807.818.818,0,0,1-.917-.807v-6.453a.814.814,0,0,1,.917-.8.794.794,0,0,1,.878.8V908.9a2.71,2.71,0,0,1,1.439-.366,2.068,2.068,0,0,1,2.287,2.212v3.072A.824.824,0,0,1,1400.443,914.62Zm.019-.807Zm-.028-.082h.028v-2.99a1.189,1.189,0,0,0-.536-1.135,1.633,1.633,0,0,1,.508,1.307Zm-3.716,0h.018v-1.922l-.018.034Zm0-6.278v2.34a1.372,1.372,0,0,0,.018-.157v-2.184Z" transform="translate(-1395.83 -906.563)"/></g><g transform="translate(31.97 7.196)"><path class="a" d="M1413.373,912.742c0-.236.192-.354.474-.354.252,0,.453.118.453.354v.2a3.559,3.559,0,0,1-.061.426,1.671,1.671,0,0,1,1.541-1.024,1.852,1.852,0,0,1,.221-.009,1.975,1.975,0,0,1,.4.045c.232.027.322.154.322.327a.892.892,0,0,1-.02.154.411.411,0,0,1-.393.353.314.314,0,0,1-.091-.009,2.233,2.233,0,0,0-.484-.054,1.348,1.348,0,0,0-1.017.5,1.536,1.536,0,0,0-.423,1.006v2.5c0,.245-.2.362-.453.362-.282,0-.474-.118-.474-.362Z" transform="translate(-1412.929 -911.887)"/><path class="a" d="M1413.236,917.348a.818.818,0,0,1-.918-.807v-4.414a.814.814,0,0,1,.918-.8.912.912,0,0,1,.742.325,2.214,2.214,0,0,1,1.16-.369,2.338,2.338,0,0,1,.726.04.752.752,0,0,1,.7.766,1.253,1.253,0,0,1-.028.235.851.851,0,0,1-.83.716.755.755,0,0,1-.19-.02,1.793,1.793,0,0,0-.384-.043.9.9,0,0,0-.681.345,1.1,1.1,0,0,0-.314.727v2.489A.819.819,0,0,1,1413.236,917.348Zm-.029-.89h.038v-1.39l-.038.1Zm0-4.239v.359l.01-.056a1.446,1.446,0,0,0,.028-.2v-.109Zm2.509-.061.024.005Z" transform="translate(-1412.318 -911.273)"/></g></g></g><text class="b" transform="translate(35.781 91.753)"><tspan x="-28.583" y="0">NT.160</tspan><tspan y="0">元</tspan></text></g></svg>