<svg xmlns="http://www.w3.org/2000/svg" width="71.548" height="93.753" viewBox="0 0 71.548 93.753"><defs><style>.a,.b{fill:#5cade1;}.b{font-size:12px;font-family:TaipeiSansTCBeta-Bold, Taipei Sans TC Beta;font-weight:700;letter-spacing:0.05em;}</style></defs><g transform="translate(-0.021)"><g transform="translate(0.021 0)"><g transform="translate(0 0)"><path class="a" d="M1039.36,818.994a32.519,32.519,0,1,1-.38-5.058,32.942,32.942,0,0,1,.38,5.058,1.587,1.587,0,0,0,3.171,0,35.854,35.854,0,1,0-.437,5.543,38.694,38.694,0,0,0,.437-5.543A1.587,1.587,0,0,0,1039.36,818.994Z" transform="translate(-970.984 -783.216)"/></g><g transform="translate(28.298 8.93)"><path class="a" d="M1054.418,841.942a1.335,1.335,0,1,0,1.114,1.317A1.228,1.228,0,0,0,1054.418,841.942Z" transform="translate(-1046.956 -826.156)"/><path class="a" d="M1051.982,814.6a7.047,7.047,0,1,0-12.639,0,1.349,1.349,0,0,0,.227,2.679h1.192l1.333,16.931a1.822,1.822,0,0,0,1.368,1.537,2.279,2.279,0,0,0,4.486.01,1.823,1.823,0,0,0,1.4-1.532l1.3-16.93,1.1,0a1.366,1.366,0,0,0,1.351-1.368A1.349,1.349,0,0,0,1051.982,814.6Zm-6.3,4.175a2.8,2.8,0,1,1-2.34,2.766A2.579,2.579,0,0,1,1045.682,818.771Z" transform="translate(-1038.221 -804.434)"/></g><g transform="translate(22.936 46.769)"><path class="a" d="M1030.093,902.076a.685.685,0,0,1,0-1.369l.923.03h.137c1.726,0,2.8-.815,2.8-2.154,0-1.231-1.026-1.954-2.667-1.954a2.563,2.563,0,0,0-2.718,1.554.674.674,0,0,1-.65.384,1.611,1.611,0,0,1-.393-.061c-.324-.092-.547-.292-.547-.569a.553.553,0,0,1,.068-.277c.512-1.154,1.658-2.277,4.308-2.277,2.513,0,4.2,1.215,4.2,3.093a2.784,2.784,0,0,1-2.53,2.878c1.983.246,2.941,1.308,2.941,3.077,0,2.031-1.778,3.431-4.753,3.431-2.582,0-4.017-.985-4.633-2.385a.556.556,0,0,1-.068-.277c0-.292.24-.523.615-.615a1.413,1.413,0,0,1,.342-.046.736.736,0,0,1,.7.446c.444,1,1.316,1.6,3.077,1.6,1.8,0,3.077-.862,3.077-2.277,0-1.462-1.163-2.247-3.2-2.247h-.1Z" transform="translate(-1026.082 -894.944)"/><path class="a" d="M1030.618,907.7c-3.184,0-4.491-1.426-5.026-2.63a1,1,0,0,1-.112-.47,1.12,1.12,0,0,1,.949-1.041,1.835,1.835,0,0,1,.446-.059,1.177,1.177,0,0,1,1.093.689c.286.642.84,1.358,2.685,1.358,1.6,0,2.639-.722,2.639-1.839,0-1.495-1.5-1.808-2.758-1.808h-.1l-.93.016a1.032,1.032,0,0,1-.76-.282,1.176,1.176,0,0,1-.339-.849,1.155,1.155,0,0,1,.336-.832,1.03,1.03,0,0,1,.768-.283l.922.031h.123c1.481,0,2.365-.641,2.365-1.716,0-1.368-1.558-1.516-2.228-1.516a2.143,2.143,0,0,0-2.314,1.284,1.113,1.113,0,0,1-1.054.654,2.034,2.034,0,0,1-.5-.075,1.069,1.069,0,0,1-.876-.994.99.99,0,0,1,.113-.471c.751-1.673,2.333-2.522,4.7-2.522,2.777,0,4.643,1.419,4.643,3.531a3.032,3.032,0,0,1-1.522,2.8,3.144,3.144,0,0,1,1.933,3.154C1035.809,906.178,1033.771,907.7,1030.618,907.7Zm-3.744-3.324a.985.985,0,0,0-.233.032c-.168.041-.286.121-.286.191a.116.116,0,0,0,.013.064l.018.036c.611,1.389,2.074,2.123,4.231,2.123,2.661,0,4.314-1.147,4.314-2.993,0-1.586-.812-2.426-2.556-2.643l-2.545-.316,2.505-.547a2.36,2.36,0,0,0,2.185-2.449c0-1.613-1.478-2.655-3.767-2.655-2,0-3.313.679-3.908,2.017l-.017.034a.121.121,0,0,0-.013.065c0,.047.1.111.228.147a1.193,1.193,0,0,0,.274.045c.173,0,.222-.069.256-.14a3,3,0,0,1,3.112-1.8c1.915,0,3.105.917,3.105,2.393,0,1.575-1.273,2.592-3.242,2.592h-.137l-.938-.031a.167.167,0,0,0-.129.038.287.287,0,0,0-.068.2.313.313,0,0,0,.071.218.145.145,0,0,0,.125.037h.008l1.051-.015c2.31,0,3.635.979,3.635,2.685,0,1.625-1.413,2.715-3.515,2.715-1.808,0-2.914-.591-3.478-1.861A.292.292,0,0,0,1026.874,904.373Z" transform="translate(-1025.479 -894.341)"/><g transform="translate(14.581 5.157)"><path class="a" d="M1065.732,914.347c0,.241-.2.357-.457.357s-.447-.116-.447-.357v-2.86c0-.76-.348-1.18-1.093-1.18a1.655,1.655,0,0,0-1.321.626,1.335,1.335,0,0,0-.357.911v2.5c0,.241-.169.357-.427.357-.278,0-.467-.116-.467-.357v-6.364c0-.232.189-.349.467-.349.258,0,.427.107.427.349v2.243a4.044,4.044,0,0,1-.06.456,1.956,1.956,0,0,1,1.917-1.108,1.613,1.613,0,0,1,1.817,1.743Z" transform="translate(-1060.726 -907.197)"/><path class="a" d="M1064.673,914.54a.8.8,0,0,1-.885-.8v-2.86c0-.617-.25-.742-.654-.742a1.217,1.217,0,0,0-.984.468.905.905,0,0,0-.256.631v2.5a.788.788,0,0,1-.865.8.807.807,0,0,1-.9-.8v-6.364a.8.8,0,0,1,.9-.787.783.783,0,0,1,.865.787v1.513a2.669,2.669,0,0,1,1.419-.361,2.039,2.039,0,0,1,2.255,2.181v3.03A.812.812,0,0,1,1064.673,914.54Zm.019-.8Zm-.027-.081h.027v-2.948a1.174,1.174,0,0,0-.528-1.12,1.611,1.611,0,0,1,.5,1.289Zm-3.665,0h.017v-1.9l-.017.034Zm0-6.191v2.308a1.379,1.379,0,0,0,.017-.155V907.47Z" transform="translate(-1060.123 -906.594)"/></g><g transform="translate(21.424 7.111)"><path class="a" d="M1077.423,912.688c0-.232.189-.349.467-.349.249,0,.447.116.447.349v.2a3.486,3.486,0,0,1-.06.42,1.649,1.649,0,0,1,1.519-1.01,1.9,1.9,0,0,1,.219-.009,1.955,1.955,0,0,1,.4.044c.228.027.318.152.318.322a.88.88,0,0,1-.02.152.406.406,0,0,1-.387.349.3.3,0,0,1-.089-.009,2.208,2.208,0,0,0-.477-.054,1.33,1.33,0,0,0-1,.492,1.513,1.513,0,0,0-.417.992v2.467c0,.241-.2.357-.447.357-.278,0-.467-.116-.467-.357Z" transform="translate(-1076.985 -911.845)"/><path class="a" d="M1077.287,917.229a.807.807,0,0,1-.9-.8v-4.353a.8.8,0,0,1,.9-.787.9.9,0,0,1,.732.32,2.189,2.189,0,0,1,1.144-.364,2.3,2.3,0,0,1,.716.04.742.742,0,0,1,.687.755,1.277,1.277,0,0,1-.027.232.84.84,0,0,1-.819.706.74.74,0,0,1-.187-.02,1.769,1.769,0,0,0-.378-.043.891.891,0,0,0-.672.341,1.085,1.085,0,0,0-.31.717v2.455A.807.807,0,0,1,1077.287,917.229Zm-.029-.877h.037v-1.371l-.037.1Zm0-4.181v.354l.01-.055a1.392,1.392,0,0,0,.027-.193v-.107Zm2.475-.06.023.005Z" transform="translate(-1076.382 -911.238)"/></g></g></g><text class="b" transform="translate(36.021 91.753)"><tspan x="-24.75" y="0">NT.95</tspan><tspan y="0">元</tspan></text></g></svg>