<svg xmlns="http://www.w3.org/2000/svg" width="71.548" height="93.753" viewBox="0 0 71.548 93.753"><defs><style>.a,.b{fill:#5cade1;}.b{font-size:12px;font-family:TaipeiSansTCBeta-Bold, Taipei Sans TC Beta;font-weight:700;letter-spacing:0.05em;}</style></defs><g transform="translate(-0.021)"><g transform="translate(0.021 0)"><g transform="translate(0 0)"><path class="a" d="M1691.051,818.994a32.52,32.52,0,1,1-.38-5.058,32.943,32.943,0,0,1,.38,5.058,1.587,1.587,0,0,0,3.172,0,35.858,35.858,0,1,0-.438,5.543,38.589,38.589,0,0,0,.438-5.543A1.587,1.587,0,0,0,1691.051,818.994Z" transform="translate(-1622.675 -783.216)"/></g><g transform="translate(28.319 9.007)"><path class="a" d="M1706.113,842.017a1.331,1.331,0,1,0,1.111,1.313A1.224,1.224,0,0,0,1706.113,842.017Z" transform="translate(-1698.672 -826.276)"/><path class="a" d="M1703.685,814.748a7.028,7.028,0,1,0-12.6,0,1.345,1.345,0,0,0,.227,2.672h1.188l1.329,16.882a1.818,1.818,0,0,0,1.365,1.532,2.274,2.274,0,0,0,4.474.01,1.818,1.818,0,0,0,1.4-1.528l1.295-16.882,1.1,0a1.362,1.362,0,0,0,1.347-1.364A1.346,1.346,0,0,0,1703.685,814.748Zm-6.283,4.164a2.8,2.8,0,1,1-2.333,2.758A2.572,2.572,0,0,1,1697.4,818.912Z" transform="translate(-1689.961 -804.616)"/></g><g transform="translate(19.121 46.719)"><path class="a" d="M1672.722,901.958a.685.685,0,0,1,0-1.369l.923.031h.137c1.727,0,2.8-.815,2.8-2.154,0-1.231-1.025-1.954-2.667-1.954a2.563,2.563,0,0,0-2.718,1.554.674.674,0,0,1-.649.385,1.583,1.583,0,0,1-.393-.062c-.325-.092-.547-.292-.547-.569a.557.557,0,0,1,.068-.277c.513-1.154,1.658-2.277,4.308-2.277,2.513,0,4.2,1.215,4.2,3.093a2.783,2.783,0,0,1-2.53,2.877c1.983.246,2.94,1.308,2.94,3.077,0,2.031-1.778,3.43-4.752,3.43-2.581,0-4.017-.984-4.633-2.384a.557.557,0,0,1-.068-.277c0-.293.239-.523.616-.615a1.41,1.41,0,0,1,.342-.046.736.736,0,0,1,.7.446c.444,1,1.316,1.6,3.077,1.6,1.8,0,3.077-.862,3.077-2.277,0-1.462-1.162-2.246-3.2-2.246h-.1Z" transform="translate(-1668.71 -894.827)"/><path class="a" d="M1673.246,907.578c-3.184,0-4.492-1.427-5.027-2.631a1,1,0,0,1-.112-.47,1.121,1.121,0,0,1,.95-1.042,1.823,1.823,0,0,1,.447-.059,1.177,1.177,0,0,1,1.094.689c.286.641.84,1.357,2.684,1.357,1.6,0,2.638-.721,2.638-1.837,0-1.494-1.5-1.807-2.757-1.807h-.1l-.929.016a1.018,1.018,0,0,1-.761-.282,1.178,1.178,0,0,1-.339-.85,1.158,1.158,0,0,1,.336-.833,1.025,1.025,0,0,1,.769-.283l.922.031h.123c1.481,0,2.365-.641,2.365-1.715,0-1.367-1.558-1.514-2.228-1.514a2.142,2.142,0,0,0-2.312,1.284,1.114,1.114,0,0,1-1.055.655,2,2,0,0,1-.5-.076,1.069,1.069,0,0,1-.876-.995.984.984,0,0,1,.113-.471c.751-1.673,2.334-2.522,4.7-2.522,2.778,0,4.644,1.42,4.644,3.532a3.031,3.031,0,0,1-1.52,2.8,3.144,3.144,0,0,1,1.931,3.154C1678.438,906.058,1676.4,907.578,1673.246,907.578Zm-3.743-3.323a.99.99,0,0,0-.233.032c-.167.041-.285.12-.285.19a.118.118,0,0,0,.013.064l.018.035c.611,1.388,2.074,2.122,4.23,2.122,2.661,0,4.313-1.146,4.313-2.992,0-1.585-.812-2.425-2.555-2.641l-2.552-.317,2.513-.548a2.358,2.358,0,0,0,2.184-2.447c0-1.612-1.478-2.653-3.766-2.653-2,0-3.312.678-3.907,2.016l-.017.035a.114.114,0,0,0-.013.064c0,.04.085.106.228.146a1.174,1.174,0,0,0,.273.045c.172,0,.221-.069.255-.14a3,3,0,0,1,3.112-1.8c1.916,0,3.106.917,3.106,2.393,0,1.575-1.273,2.593-3.243,2.593h-.137l-.938-.031a.182.182,0,0,0-.128.037.288.288,0,0,0-.068.2.313.313,0,0,0,.07.217.139.139,0,0,0,.124.036h.009l1.05-.015c2.311,0,3.636.979,3.636,2.686,0,1.625-1.413,2.716-3.516,2.716-1.809,0-2.914-.591-3.479-1.861A.29.29,0,0,0,1669.5,904.255Z" transform="translate(-1668.106 -894.222)"/><g transform="translate(12.411 0.016)"><path class="a" d="M1708.4,901.5c0,4.077-1.726,6.231-4.872,6.231-3.231,0-4.889-2.139-4.889-6.262,0-4.015,1.726-6.169,4.906-6.169C1706.657,895.3,1708.4,897.349,1708.4,901.5Zm-8.12-.015c0,3.246,1.077,4.923,3.248,4.923s3.231-1.677,3.231-4.923c0-3.185-1.043-4.861-3.214-4.861C1701.392,896.626,1700.281,898.257,1700.281,901.488Z" transform="translate(-1698.201 -894.864)"/><path class="a" d="M1702.924,907.569c-2.431,0-5.328-1.162-5.328-6.7,0-4.261,1.9-6.608,5.345-6.608,3.414,0,5.294,2.358,5.294,6.639C1708.235,905.2,1706.349,907.569,1702.924,907.569Zm.017-12.431c-3.691,0-4.466,3.116-4.466,5.73,0,3.864,1.5,5.822,4.449,5.822,3.663,0,4.432-3.149,4.432-5.792C1707.356,897.076,1705.871,895.138,1702.941,895.138Zm-.017,11.108c-1.682,0-3.687-.93-3.687-5.362,0-4.381,2.014-5.3,3.7-5.3,1.667,0,3.653.92,3.653,5.3C1706.594,903.329,1705.957,906.245,1702.924,906.245Zm.017-9.784c-1.9,0-2.826,1.446-2.826,4.422,0,4.484,2.114,4.484,2.809,4.484s2.791,0,2.791-4.484C1705.715,896.461,1703.627,896.461,1702.941,896.461Z" transform="translate(-1697.596 -894.259)"/></g><g transform="translate(25.288 5.013)"><path class="a" d="M1736.306,913.753c0,.572-.308.813-.923.813h-5.224c-.616,0-.924-.241-.924-.813V908c0-.581.308-.822.924-.822h5.224c.615,0,.923.242.923.822Zm-.794-3.342v-2.287c0-.205-.12-.268-.338-.268h-4.806c-.219,0-.338.063-.338.268v2.287Zm-5.482,3.208c0,.205.119.268.338.268h4.806c.218,0,.338-.063.338-.268v-2.538h-5.482Z" transform="translate(-1728.796 -906.737)"/><path class="a" d="M1734.778,914.4h-5.223c-1.186,0-1.363-.785-1.363-1.253v-5.755c0-.471.177-1.262,1.363-1.262h5.223c1.186,0,1.363.791,1.363,1.262v5.755C1736.141,913.616,1735.964,914.4,1734.778,914.4Zm-5.353-1.386.439,0v0Zm.439-.171h4.6v-1.927h-4.6Zm0-3.476h4.6V907.69h-4.6Z" transform="translate(-1728.192 -906.132)"/></g></g></g><text class="b" transform="translate(35.521 91.753)"><tspan x="-28.583" y="0">NT.445</tspan><tspan y="0">元</tspan></text></g></svg>