<svg xmlns="http://www.w3.org/2000/svg" width="71.548" height="93.753" viewBox="0 0 71.548 93.753"><defs><style>.a,.b{fill:#5cade1;}.b{font-size:12px;font-family:TaipeiSansTCBeta-Bold, Taipei Sans TC Beta;font-weight:700;letter-spacing:0.05em;}</style></defs><g transform="translate(0.219)"><g transform="translate(-0.219 0)"><g transform="translate(0 0)"><path class="a" d="M2027.375,818.994a32.518,32.518,0,1,1-.38-5.058,32.942,32.942,0,0,1,.38,5.058,1.587,1.587,0,0,0,3.171,0,35.855,35.855,0,1,0-.437,5.543,38.677,38.677,0,0,0,.437-5.543A1.587,1.587,0,0,0,2027.375,818.994Z" transform="translate(-1958.998 -783.216)"/></g><g transform="translate(28.298 8.93)"><path class="a" d="M2042.432,841.942a1.335,1.335,0,1,0,1.113,1.317A1.228,1.228,0,0,0,2042.432,841.942Z" transform="translate(-2034.971 -826.156)"/><path class="a" d="M2040,814.6a7.047,7.047,0,1,0-12.639,0,1.349,1.349,0,0,0,.227,2.679h1.191l1.333,16.931a1.822,1.822,0,0,0,1.368,1.537,2.279,2.279,0,0,0,4.486.01,1.823,1.823,0,0,0,1.4-1.532l1.3-16.93,1.1,0a1.366,1.366,0,0,0,1.35-1.368A1.349,1.349,0,0,0,2040,814.6Zm-6.3,4.175a2.8,2.8,0,1,1-2.34,2.766A2.579,2.579,0,0,1,2033.7,818.771Z" transform="translate(-2026.236 -804.434)"/></g><g transform="translate(19.097 46.763)"><path class="a" d="M2009.776,903.445c-2.539,0-4.357-1.575-4.357-3.983,0-2.363,1.664-4.092,4.6-4.092,3,0,4.889,1.992,4.889,5.914,0,4.324-1.63,6.563-4.975,6.563-2.281,0-3.448-.927-3.98-1.961a.486.486,0,0,1-.086-.294.724.724,0,0,1,.5-.617,1.094,1.094,0,0,1,.446-.093.711.711,0,0,1,.635.34,2.573,2.573,0,0,0,2.573,1.359c2.642,0,3.379-2.532,3.379-5.064A3.9,3.9,0,0,1,2009.776,903.445Zm-2.762-4.014a2.71,2.71,0,0,0,2.968,2.779,2.805,2.805,0,1,0,.051-5.589A2.755,2.755,0,0,0,2007.014,899.431Z" transform="translate(-2004.979 -894.93)"/><path class="a" d="M2009.326,907.681c-2.654,0-3.833-1.175-4.357-2.172a.923.923,0,0,1-.149-.522,1.148,1.148,0,0,1,.766-1.022,1.528,1.528,0,0,1,.618-.128,1.143,1.143,0,0,1,1.013.555,2.134,2.134,0,0,0,2.195,1.143c1.936,0,2.653-1.6,2.865-3.313a4.6,4.6,0,0,1-3.1,1.057c-2.824,0-4.8-1.819-4.8-4.423,0-2.753,1.978-4.532,5.037-4.532,3.386,0,5.328,2.316,5.328,6.353C2014.74,903.873,2013.8,907.681,2009.326,907.681Zm-3.122-2.965a.648.648,0,0,0-.266.054c-.167.071-.238.168-.238.216a.139.139,0,0,0,0,.04l.033.053c.58,1.127,1.82,1.722,3.589,1.722,3.051,0,4.535-2,4.535-6.123,0-3.53-1.58-5.474-4.449-5.474-2.565,0-4.158,1.4-4.158,3.652,0,2.119,1.574,3.544,3.917,3.544a3.479,3.479,0,0,0,3.24-1.713l.819-1.4v1.625c0,3.549-1.356,5.5-3.819,5.5a3,3,0,0,1-2.956-1.582A.273.273,0,0,0,2006.2,904.716Zm3.173-2.672a3.14,3.14,0,0,1-3.407-3.219,3.18,3.18,0,0,1,3.459-3.25,3.244,3.244,0,1,1-.051,6.469Zm.051-5.589a2.325,2.325,0,0,0-2.579,2.37,2.262,2.262,0,0,0,2.528,2.34,2.367,2.367,0,1,0,.051-4.71Z" transform="translate(-2004.374 -894.325)"/><g transform="translate(12.387)"><path class="a" d="M2044.645,901.593c0,4.092-1.733,6.254-4.889,6.254-3.242,0-4.906-2.146-4.906-6.284,0-4.03,1.733-6.192,4.923-6.192C2042.895,895.37,2044.645,897.424,2044.645,901.593Zm-8.148-.015c0,3.258,1.08,4.941,3.259,4.941s3.242-1.683,3.242-4.941c0-3.2-1.046-4.88-3.225-4.88C2037.612,896.7,2036.5,898.335,2036.5,901.577Z" transform="translate(-2034.41 -894.93)"/><path class="a" d="M2039.151,907.681c-2.438,0-5.346-1.167-5.346-6.724,0-4.276,1.9-6.632,5.363-6.632,3.426,0,5.311,2.366,5.311,6.662C2044.479,905.3,2042.587,907.681,2039.151,907.681Zm.017-12.476c-3.705,0-4.483,3.128-4.483,5.752,0,3.878,1.5,5.845,4.466,5.845,3.677,0,4.449-3.161,4.449-5.814C2043.6,897.15,2042.109,895.2,2039.168,895.2Zm-.017,11.148c-1.688,0-3.7-.934-3.7-5.38,0-4.4,2.021-5.319,3.716-5.319,1.672,0,3.665.923,3.665,5.319C2042.833,903.427,2042.194,906.353,2039.151,906.353Zm.017-9.82c-1.909,0-2.836,1.452-2.836,4.44,0,4.5,2.122,4.5,2.82,4.5s2.8,0,2.8-4.5C2041.953,896.532,2039.857,896.532,2039.168,896.532Z" transform="translate(-2033.805 -894.325)"/></g><g transform="translate(25.309 5.015)"><path class="a" d="M2072.649,913.888c0,.574-.309.816-.927.816h-5.241c-.618,0-.927-.242-.927-.816v-5.776c0-.583.309-.825.927-.825h5.241c.618,0,.927.242.927.825Zm-.8-3.354v-2.3c0-.206-.12-.269-.339-.269h-4.823c-.219,0-.339.063-.339.269v2.3Zm-5.5,3.22c0,.206.12.269.339.269h4.823c.219,0,.339-.063.339-.269v-2.547h-5.5Z" transform="translate(-2065.113 -906.847)"/><path class="a" d="M2071.117,914.539h-5.242c-1.189,0-1.366-.787-1.366-1.256v-5.776c0-.472.177-1.265,1.366-1.265h5.242c1.189,0,1.366.793,1.366,1.265v5.776C2072.483,913.752,2072.306,914.539,2071.117,914.539Zm-5.372-1.391.44,0v0Zm.44-.171h4.622v-1.937h-4.622Zm0-3.489h4.622V907.8h-4.622Z" transform="translate(-2064.508 -906.242)"/></g></g></g><text class="b" transform="translate(35.781 91.753)"><tspan x="-28.583" y="0">NT.888</tspan><tspan y="0">元</tspan></text></g></svg>