<svg xmlns="http://www.w3.org/2000/svg" width="28.004" height="21.063" viewBox="0 0 28.004 21.063"><defs><style>.a{fill:#5cade1;}</style></defs><g transform="translate(0 0)"><g transform="translate(7.73 6.285)"><path class="a" d="M248.777,234.912H233.786a2.651,2.651,0,0,0-2.642,2.642v9.495a2.651,2.651,0,0,0,2.642,2.641h14.991a2.65,2.65,0,0,0,2.641-2.641v-9.495A2.643,2.643,0,0,0,248.777,234.912ZM250,247.084a.961.961,0,0,1-.958.958H233.756a.961.961,0,0,1-.958-.958V240.4H250Zm0-9.2H232.8v-.363a.961.961,0,0,1,.958-.958h15.283a.961.961,0,0,1,.958.958Z" transform="translate(-231.144 -234.912)"/></g><path class="a" d="M225.312,226.431h9.3l-1.892-3.71a2.687,2.687,0,0,0-3.545-1.158l-13.433,6.429a2.526,2.526,0,0,0-1.2,3.433l4.212,8.244a2.678,2.678,0,0,0,3.064,1.336,3.759,3.759,0,0,1-.56-1.976v-8.67A4,4,0,0,1,225.312,226.431Z" transform="translate(-214.269 -221.297)"/><g transform="translate(10.815 14.959)"><path class="a" d="M238.056,255.374a1.691,1.691,0,0,0,1.3-.6,1.713,1.713,0,1,0,0-2.225,1.711,1.711,0,1,0-1.3,2.826Z" transform="translate(-236.343 -251.947)"/></g></g></svg>