<svg xmlns="http://www.w3.org/2000/svg" width="28" height="19.251" viewBox="0 0 28 19.251"><defs><style>.a{fill:#5cade1;}</style></defs><g transform="translate(7.699 9.797)"><path class="a" d="M243.371,256.22l-.163.648h.325Z" transform="translate(-243.209 -256.22)"/></g><g transform="translate(0 0)"><path class="a" d="M253.9,236.512H229.4a1.753,1.753,0,0,0-1.75,1.75v15.751a1.751,1.751,0,0,0,1.75,1.75h24.5a1.75,1.75,0,0,0,1.75-1.75V238.262A1.752,1.752,0,0,0,253.9,236.512ZM237.49,250.487a.86.86,0,0,1-.211.026.871.871,0,0,1-.847-.663l-.273-1.087H234.9l-.271,1.087a.875.875,0,1,1-1.7-.423l1.75-7a.909.909,0,0,1,1.7,0l1.75,7A.875.875,0,0,1,237.49,250.487Zm5.039-6.974h-.875v6.126a.875.875,0,0,1-1.75,0v-6.126h-.875a.875.875,0,1,1,0-1.75h3.5a.875.875,0,0,1,0,1.75Zm7.875,6.126a.875.875,0,0,1-1.75,0v-4.111l-.147.221a.909.909,0,0,1-1.456,0l-.147-.221v4.111a.875.875,0,0,1-1.75,0v-7a.875.875,0,0,1,1.6-.487l1.022,1.535,1.022-1.533a.862.862,0,0,1,.982-.352.875.875,0,0,1,.621.836Z" transform="translate(-227.654 -236.512)"/></g></svg>