<svg xmlns="http://www.w3.org/2000/svg" width="28" height="17.364" viewBox="0 0 28 17.364"><defs><style>.a{fill:#5cade1;}</style></defs><g transform="translate(0 0)"><path class="a" d="M203.618,210.671h-3.231a.532.532,0,0,0-.482.571v16.222a.532.532,0,0,0,.482.571h3.231a.533.533,0,0,0,.483-.571V211.242A.533.533,0,0,0,203.618,210.671Z" transform="translate(-199.904 -210.671)"/><path class="a" d="M237.335,210.671H234.1a.533.533,0,0,0-.483.571v16.222a.533.533,0,0,0,.483.571h3.231a.533.533,0,0,0,.483-.571V211.242A.533.533,0,0,0,237.335,210.671Z" transform="translate(-216.41 -210.671)"/><path class="a" d="M214.187,210.671h-1.133a.533.533,0,0,0-.483.571v16.222a.533.533,0,0,0,.483.571h1.133a.533.533,0,0,0,.483-.571V211.242A.533.533,0,0,0,214.187,210.671Z" transform="translate(-206.22 -210.671)"/><path class="a" d="M227.568,210.671h-1.133a.533.533,0,0,0-.483.571v16.222a.533.533,0,0,0,.483.571h1.133a.533.533,0,0,0,.483-.571V211.242A.533.533,0,0,0,227.568,210.671Z" transform="translate(-212.892 -210.671)"/><path class="a" d="M253.183,210.671H252.05a.533.533,0,0,0-.483.571v16.222a.533.533,0,0,0,.483.571h1.133a.532.532,0,0,0,.482-.571V211.242A.533.533,0,0,0,253.183,210.671Z" transform="translate(-225.665 -210.671)"/><path class="a" d="M221.335,210.671h-.084a.532.532,0,0,0-.482.571v16.222a.533.533,0,0,0,.482.571h.084a.532.532,0,0,0,.482-.571V211.242A.533.533,0,0,0,221.335,210.671Z" transform="translate(-210.389 -210.671)"/><path class="a" d="M247.415,210.671h-.084a.532.532,0,0,0-.482.571v16.222a.533.533,0,0,0,.482.571h.084a.533.533,0,0,0,.482-.571V211.242A.533.533,0,0,0,247.415,210.671Z" transform="translate(-222.915 -210.671)"/></g></svg>