<svg xmlns="http://www.w3.org/2000/svg" width="63.572" height="17.782" viewBox="0 0 63.572 17.782"><defs><style>.a{fill:#5cade1;}</style></defs><g transform="translate(0 0)"><path class="a" d="M12.553,21.139a2.839,2.839,0,0,0-1.042-1.124,4.881,4.881,0,0,0-1.658-.609A13.547,13.547,0,0,0,7.6,19.229l-3.983,0a1,1,0,0,0-.917.728L.021,31.634a.564.564,0,0,0,.577.725H2.5a.976.976,0,0,0,.916-.725L4.075,28.8a.977.977,0,0,1,.914-.724h.546a9.034,9.034,0,0,0,5.437-1.434,4.465,4.465,0,0,0,1.948-3.783A3.548,3.548,0,0,0,12.553,21.139ZM8.439,24.953a4.012,4.012,0,0,1-2.412.634H5.56a.568.568,0,0,1-.579-.728l.574-2.479a.965.965,0,0,1,.909-.724l.625,0a3.053,3.053,0,0,1,1.659.371A1.261,1.261,0,0,1,9.3,23.16,2.065,2.065,0,0,1,8.439,24.953Z" transform="translate(0 -19.229)"/></g><g transform="translate(11.861 2.971)"><path class="a" d="M18.428,21.976a7.24,7.24,0,0,0-3.41-.609,15.069,15.069,0,0,0-2.308.179c-.571.088-.627.1-.978.181a1.119,1.119,0,0,0-.839.882l-.233.96c-.132.613.221.589.368.538a9.914,9.914,0,0,1,1.141-.336,8.178,8.178,0,0,1,1.787-.239,4.71,4.71,0,0,1,1.735.245.876.876,0,0,1,.575.867l-.033.27-.275.17c-1.082.068-1.865.168-2.814.306a8.727,8.727,0,0,0-2.419.666,3.76,3.76,0,0,0-1.642,1.295,3.529,3.529,0,0,0-.546,2,2.357,2.357,0,0,0,.777,1.812,2.916,2.916,0,0,0,2.01.686,5.485,5.485,0,0,0,1.2-.111l.924-.318.782-.433.72-.475.01.014-.072.306,0,.013v0a.567.567,0,0,0,.51.714l.007.008h1.772l.025-.011a.987.987,0,0,0,.821-.714l1.391-6.02.072-.49.033-.46A2.013,2.013,0,0,0,18.428,21.976Zm-3.076,6.769-.3.392-.75.388a2.672,2.672,0,0,1-1,.215,2.289,2.289,0,0,1-1.087-.207l-.368-.716a1.43,1.43,0,0,1,.279-.931l.809-.55a6.994,6.994,0,0,1,1.257-.283c.436-.054,1.3-.153,1.41-.156l.132.232C15.713,27.261,15.469,28.283,15.352,28.745Z" transform="translate(-8.537 -21.367)"/></g><g transform="translate(46.51 2.978)"><path class="a" d="M43.366,21.982a7.254,7.254,0,0,0-3.408-.61,14.525,14.525,0,0,0-2.306.183c-.572.083-.629.1-.982.176a1.115,1.115,0,0,0-.836.884l-.233.959c-.131.613.214.585.375.538a11.3,11.3,0,0,1,1.131-.338,8.532,8.532,0,0,1,1.791-.239,4.685,4.685,0,0,1,1.731.246.875.875,0,0,1,.575.866l-.029.268-.272.174c-1.093.065-1.877.165-2.816.3a8.73,8.73,0,0,0-2.42.666,3.757,3.757,0,0,0-1.642,1.3,3.485,3.485,0,0,0-.547,1.987,2.331,2.331,0,0,0,.781,1.815,2.919,2.919,0,0,0,2.006.691,5.315,5.315,0,0,0,1.2-.113l.921-.314.789-.433.714-.481.013.015-.065.308-.007.006,0,.006a.558.558,0,0,0,.507.714l0,.007h1.77l.029-.01a.977.977,0,0,0,.811-.72l1.395-6.012.074-.493.04-.461A2.01,2.01,0,0,0,43.366,21.982ZM40.3,28.751l-.31.4-.743.385a2.7,2.7,0,0,1-.993.215,2.222,2.222,0,0,1-1.085-.208l-.372-.713a1.491,1.491,0,0,1,.272-.934,1.955,1.955,0,0,1,.817-.549,7.087,7.087,0,0,1,1.256-.282c.433-.054,1.292-.156,1.4-.157l.135.232C40.657,27.269,40.411,28.287,40.3,28.751Z" transform="translate(-33.475 -21.372)"/></g><g transform="translate(34.643 0.042)"><path class="a" d="M37.488,21.171a2.952,2.952,0,0,0-1.05-1.128,4.682,4.682,0,0,0-1.658-.609,13.115,13.115,0,0,0-2.244-.175l-3.989,0a.991.991,0,0,0-.91.725L24.954,31.666a.565.565,0,0,0,.575.724l1.91,0a.989.989,0,0,0,.917-.722L29,28.829a.989.989,0,0,1,.917-.724h.546a9.081,9.081,0,0,0,5.449-1.432,4.515,4.515,0,0,0,1.94-3.789A3.722,3.722,0,0,0,37.488,21.171ZM33.373,24.99a4.062,4.062,0,0,1-2.406.625h-.475a.571.571,0,0,1-.584-.727l.578-2.475a.97.97,0,0,1,.911-.724l.618,0a3.088,3.088,0,0,1,1.659.37,1.272,1.272,0,0,1,.554,1.137A2.094,2.094,0,0,1,33.373,24.99Z" transform="translate(-24.934 -19.259)"/></g><g transform="translate(57.793 0.146)"><path class="a" d="M47.357,20.051a.558.558,0,0,0-.572-.717H45.075a.968.968,0,0,0-.82.579l-.094.147-.086.378L41.687,31.3l-.078.333,0,.008a.541.541,0,0,0,.479.678l.029.04h1.774a.969.969,0,0,0,.823-.589l.092-.139,2.554-11.575Z" transform="translate(-41.595 -19.334)"/></g><g transform="translate(23.471 3.116)"><path class="a" d="M28.137,21.472c-.452.006-2.287,0-2.287,0a1.654,1.654,0,0,0-1.2.728s-2.732,4.688-3,5.159l-.317,0-.85-5.123a1.051,1.051,0,0,0-1.039-.748l-1.709,0a.564.564,0,0,0-.571.728s1.3,7.385,1.558,9.123c.121.959-.015,1.13-.015,1.13l-1.69,2.943c-.25.4-.115.727.295.727l1.976,0a1.6,1.6,0,0,0,1.2-.725l7.6-12.855S28.817,21.457,28.137,21.472Z" transform="translate(-16.893 -21.472)"/></g></svg>