<svg xmlns="http://www.w3.org/2000/svg" width="340.606" height="18" viewBox="0 0 340.606 18"><defs><style>.a{font-size:15px;font-family:TaipeiSansTCBeta-Regular, Taipei Sans TC Beta;letter-spacing:-0.011em;}.b{fill:rgba(0,0,0,0.36);}</style></defs><g transform="translate(-19.894 -14)"><g transform="translate(19 14)"><g transform="translate(0.894)"><text class="a"><tspan x="12.687" y="13">9:41</tspan></text></g><g transform="translate(274 2)"><g transform="translate(43 0.6)"><path class="b" d="M3.589,11.5a4.073,4.073,0,0,1-2.156-.374A2.532,2.532,0,0,1,.374,10.067,4.065,4.065,0,0,1,0,7.911V3.589A4.065,4.065,0,0,1,.374,1.433,2.532,2.532,0,0,1,1.433.374,4.065,4.065,0,0,1,3.589,0H18.41a4.066,4.066,0,0,1,2.157.374,2.532,2.532,0,0,1,1.058,1.058A4.08,4.08,0,0,1,22,3.589V7.911a4.08,4.08,0,0,1-.374,2.156,2.532,2.532,0,0,1-1.058,1.058,4.077,4.077,0,0,1-2.157.374ZM1.9,1.256a1.535,1.535,0,0,0-.649.649A3.322,3.322,0,0,0,1,3.589V7.911A3.322,3.322,0,0,0,1.256,9.6a1.523,1.523,0,0,0,.649.648,3.309,3.309,0,0,0,1.685.257H18.41a3.311,3.311,0,0,0,1.686-.257,1.546,1.546,0,0,0,.648-.648A3.322,3.322,0,0,0,21,7.911V3.589A3.322,3.322,0,0,0,20.744,1.9a1.548,1.548,0,0,0-.648-.649A3.324,3.324,0,0,0,18.41,1H3.589A3.322,3.322,0,0,0,1.9,1.256ZM23,3.69s1.5.763,1.5,2-1.5,2-1.5,2Z" transform="translate(0 0.56)"/><rect width="18" height="7.667" rx="1.6" transform="translate(2 2.477)"/></g><path d="M15.3,10.7a1.2,1.2,0,0,1-1.2-1.2V1.2A1.2,1.2,0,0,1,15.3,0h.6a1.2,1.2,0,0,1,1.2,1.2V9.5a1.2,1.2,0,0,1-1.2,1.2Zm-4.7,0A1.2,1.2,0,0,1,9.4,9.5V3.6a1.2,1.2,0,0,1,1.2-1.2h.6a1.2,1.2,0,0,1,1.2,1.2V9.5a1.2,1.2,0,0,1-1.2,1.2ZM6,10.7A1.2,1.2,0,0,1,4.8,9.5V5.9A1.2,1.2,0,0,1,6,4.7h.6A1.2,1.2,0,0,1,7.8,5.9V9.5a1.2,1.2,0,0,1-1.2,1.2Zm-4.8,0A1.2,1.2,0,0,1,0,9.5V7.9A1.2,1.2,0,0,1,1.2,6.7h.6A1.2,1.2,0,0,1,3,7.9V9.5a1.2,1.2,0,0,1-1.2,1.2Z" transform="translate(0.5 1.6)"/><path d="M7.7,11.057a.315.315,0,0,1-.223-.094L5.462,8.932a.317.317,0,0,1,.01-.461,3.451,3.451,0,0,1,4.457,0,.312.312,0,0,1,.1.228.319.319,0,0,1-.095.233L7.924,10.964A.315.315,0,0,1,7.7,11.057Zm3.537-3.567a.307.307,0,0,1-.215-.086,4.945,4.945,0,0,0-6.641,0A.311.311,0,0,1,3.945,7.4L2.78,6.222a.325.325,0,0,1,0-.463,7.22,7.22,0,0,1,9.834,0,.325.325,0,0,1,0,.463L11.459,7.4A.312.312,0,0,1,11.237,7.491ZM13.92,4.783a.31.31,0,0,1-.217-.088,8.714,8.714,0,0,0-12.006,0,.311.311,0,0,1-.218.088.306.306,0,0,1-.22-.092L.094,3.515a.325.325,0,0,1,0-.46,10.989,10.989,0,0,1,15.206,0,.324.324,0,0,1,0,.46L14.14,4.691A.306.306,0,0,1,13.92,4.783Z" transform="translate(22.6 1.4)"/></g></g></g></svg>